HIERARCHY
ROOT Hips
{
    OFFSET   0.000000   0.000000   0.000000
    CHANNELS 6 Xposition Yposition Zposition Zrotation Xrotation Yrotation
    JOINT Chest
    {
        OFFSET   0.000000   8.007230   0.000000
        CHANNELS 3 Zrotation Xrotation Yrotation
        JOINT Chest2
        {
            OFFSET   0.000000  22.077100   0.000000
            CHANNELS 3 Zrotation Xrotation Yrotation
            JOINT Neck
            {
                OFFSET   0.000000  23.254700   0.000000
                CHANNELS 3 Zrotation Xrotation Yrotation
                JOINT Head
                {
                    OFFSET   0.000010  14.370000   1.956610
                    CHANNELS 3 Zrotation Xrotation Yrotation
                    End Site
                    {
                        OFFSET   0.000000  19.566000   0.000000
                    }
                }
            }
            JOINT LeftCollar
            {
                OFFSET   3.911900  19.017000  -0.467063
                CHANNELS 3 Zrotation Xrotation Yrotation
                JOINT LeftShoulder
                {
                    OFFSET  10.383700   0.000000   0.000000
                    CHANNELS 3 Zrotation Xrotation Yrotation
                    JOINT LeftElbow
                    {
                        OFFSET  26.662100   0.001671   0.000522
                        CHANNELS 3 Zrotation Xrotation Yrotation
                        JOINT LeftWrist
                        {
                            OFFSET  28.869000   0.000037  -0.000114
                            CHANNELS 3 Zrotation Xrotation Yrotation
                            JOINT LeftFinger0
                            {
                                OFFSET   2.044650  -2.323450   3.252850
                                CHANNELS 3 Zrotation Xrotation Yrotation
                                JOINT LeftFinger01
                                {
                                    OFFSET   3.088140   0.000000   0.000000
                                    CHANNELS 3 Zrotation Xrotation Yrotation
                                    JOINT LeftFinger02
                                    {
                                        OFFSET   2.639460   0.000000   0.000000
                                        CHANNELS 3 Zrotation Xrotation Yrotation
                                        End Site
                                        {
                                            OFFSET   2.582190   0.000000   0.000000
                                        }
                                    }
                                }
                            }
                            JOINT LeftFinger1
                            {
                                OFFSET   8.364480   0.000000   3.252850
                                CHANNELS 3 Zrotation Xrotation Yrotation
                                JOINT LeftFinger11
                                {
                                    OFFSET   4.646930   0.000000   0.000000
                                    CHANNELS 3 Zrotation Xrotation Yrotation
                                    JOINT LeftFinger12
                                    {
                                        OFFSET   2.323470   0.000000   0.000000
                                        CHANNELS 3 Zrotation Xrotation Yrotation
                                        End Site
                                        {
                                            OFFSET   2.273050   0.000000   0.000000
                                        }
                                    }
                                }
                            }
                            JOINT LeftFinger2
                            {
                                OFFSET   8.364490   0.000016   1.078090
                                CHANNELS 3 Zrotation Xrotation Yrotation
                                JOINT LeftFinger21
                                {
                                    OFFSET   5.111620   0.000000   0.000000
                                    CHANNELS 3 Zrotation Xrotation Yrotation
                                    JOINT LeftFinger22
                                    {
                                        OFFSET   2.788150   0.000013   0.000000
                                        CHANNELS 3 Zrotation Xrotation Yrotation
                                        End Site
                                        {
                                            OFFSET   2.727660   0.000000   0.000000
                                        }
                                    }
                                }
                            }
                            JOINT LeftFinger3
                            {
                                OFFSET   7.899780   0.000016  -1.078090
                                CHANNELS 3 Zrotation Xrotation Yrotation
                                JOINT LeftFinger31
                                {
                                    OFFSET   4.646930   0.000000   0.000000
                                    CHANNELS 3 Zrotation Xrotation Yrotation
                                    JOINT LeftFinger32
                                    {
                                        OFFSET   2.323470   0.000000   0.000000
                                        CHANNELS 3 Zrotation Xrotation Yrotation
                                        End Site
                                        {
                                            OFFSET   2.273050   0.000000   0.000000
                                        }
                                    }
                                }
                            }
                            JOINT LeftFinger4
                            {
                                OFFSET   7.435080   0.000000  -3.252850
                                CHANNELS 3 Zrotation Xrotation Yrotation
                                JOINT LeftFinger41
                                {
                                    OFFSET   3.717550   0.000000   0.000000
                                    CHANNELS 3 Zrotation Xrotation Yrotation
                                    JOINT LeftFinger42
                                    {
                                        OFFSET   1.858760   0.000000   0.000000
                                        CHANNELS 3 Zrotation Xrotation Yrotation
                                        End Site
                                        {
                                            OFFSET   1.818440   0.000000   0.000000
                                        }
                                    }
                                }
                            }
                        }
                    }
                }
            }
            JOINT RightCollar
            {
                OFFSET  -3.911900  19.017000  -0.467064
                CHANNELS 3 Zrotation Xrotation Yrotation
                JOINT RightShoulder
                {
                    OFFSET -10.383700   0.000000   0.000000
                    CHANNELS 3 Zrotation Xrotation Yrotation
                    JOINT RightElbow
                    {
                        OFFSET -26.662100   0.001633   0.000260
                        CHANNELS 3 Zrotation Xrotation Yrotation
                        JOINT RightWrist
                        {
                            OFFSET -28.869000  -0.000045  -0.000080
                            CHANNELS 3 Zrotation Xrotation Yrotation
                            JOINT RightFinger0
                            {
                                OFFSET  -2.044660  -2.323490   3.252850
                                CHANNELS 3 Zrotation Xrotation Yrotation
                                JOINT RightFinger01
                                {
                                    OFFSET  -3.088140   0.000000   0.000000
                                    CHANNELS 3 Zrotation Xrotation Yrotation
                                    JOINT RightFinger02
                                    {
                                        OFFSET  -2.639450   0.000000   0.000000
                                        CHANNELS 3 Zrotation Xrotation Yrotation
                                        End Site
                                        {
                                            OFFSET  -2.582190   0.000000   0.000000
                                        }
                                    }
                                }
                            }
                            JOINT RightFinger1
                            {
                                OFFSET  -8.364480   0.000000   3.252850
                                CHANNELS 3 Zrotation Xrotation Yrotation
                                JOINT RightFinger11
                                {
                                    OFFSET  -4.646920   0.000000   0.000000
                                    CHANNELS 3 Zrotation Xrotation Yrotation
                                    JOINT RightFinger12
                                    {
                                        OFFSET  -2.323470   0.000000   0.000000
                                        CHANNELS 3 Zrotation Xrotation Yrotation
                                        End Site
                                        {
                                            OFFSET  -2.273050   0.000000   0.000000
                                        }
                                    }
                                }
                            }
                            JOINT RightFinger2
                            {
                                OFFSET  -8.364480   0.000000   1.078090
                                CHANNELS 3 Zrotation Xrotation Yrotation
                                JOINT RightFinger21
                                {
                                    OFFSET  -5.111610   0.000000   0.000000
                                    CHANNELS 3 Zrotation Xrotation Yrotation
                                    JOINT RightFinger22
                                    {
                                        OFFSET  -2.788160   0.000000   0.000000
                                        CHANNELS 3 Zrotation Xrotation Yrotation
                                        End Site
                                        {
                                            OFFSET  -2.727660   0.000000   0.000000
                                        }
                                    }
                                }
                            }
                            JOINT RightFinger3
                            {
                                OFFSET  -7.899780   0.000000  -1.078090
                                CHANNELS 3 Zrotation Xrotation Yrotation
                                JOINT RightFinger31
                                {
                                    OFFSET  -4.646930   0.000000   0.000000
                                    CHANNELS 3 Zrotation Xrotation Yrotation
                                    JOINT RightFinger32
                                    {
                                        OFFSET  -2.323470   0.000000   0.000000
                                        CHANNELS 3 Zrotation Xrotation Yrotation
                                        End Site
                                        {
                                            OFFSET  -2.273050   0.000000   0.000000
                                        }
                                    }
                                }
                            }
                            JOINT RightFinger4
                            {
                                OFFSET  -7.435090   0.000000  -3.252850
                                CHANNELS 3 Zrotation Xrotation Yrotation
                                JOINT RightFinger41
                                {
                                    OFFSET  -3.717550   0.000000   0.000000
                                    CHANNELS 3 Zrotation Xrotation Yrotation
                                    JOINT RightFinger42
                                    {
                                        OFFSET  -1.858760   0.000000   0.000000
                                        CHANNELS 3 Zrotation Xrotation Yrotation
                                        End Site
                                        {
                                            OFFSET  -1.818440   0.000000   0.000000
                                        }
                                    }
                                }
                            }
                        }
                    }
                }
            }
        }
    }
    JOINT LeftHip
    {
        OFFSET   9.782990   0.000000   0.000000
        CHANNELS 3 Zrotation Xrotation Yrotation
        JOINT LeftKnee
        {
            OFFSET  -0.000063 -41.789100   0.001657
            CHANNELS 3 Zrotation Xrotation Yrotation
            JOINT LeftAnkle
            {
                OFFSET   0.000078 -41.133200  -0.000113
                CHANNELS 3 Zrotation Xrotation Yrotation
                JOINT LeftToe
                {
                    OFFSET   0.000000  -6.358970  14.674500
                    CHANNELS 3 Zrotation Xrotation Yrotation
                    End Site
                    {
                        OFFSET   0.000000   0.000000   3.913200
                    }
                }
            }
        }
    }
    JOINT RightHip
    {
        OFFSET  -9.782990   0.000000   0.000000
        CHANNELS 3 Zrotation Xrotation Yrotation
        JOINT RightKnee
        {
            OFFSET   0.000053 -41.789200   0.000277
            CHANNELS 3 Zrotation Xrotation Yrotation
            JOINT RightAnkle
            {
                OFFSET   0.000030 -41.133200  -0.000150
                CHANNELS 3 Zrotation Xrotation Yrotation
                JOINT RightToe
                {
                    OFFSET   0.000000  -6.358960  14.674500
                    CHANNELS 3 Zrotation Xrotation Yrotation
                    End Site
                    {
                        OFFSET   0.000000   0.000000   3.913200
                    }
                }
            }
        }
    }
}
MOTION
Frames: 4
Frame Time:   0.016667
  1.082370  89.585800  -0.397738  -2.331150  -6.670710  -3.751950   0.358927   4.360160   0.460956   0.685527   8.723000   0.898321   0.198330  -0.727444   0.002962   0.332267  -1.473520   1.796790  -4.452740  -3.096210   2.763400 -74.692100  14.990300   1.408270  -0.802542  -4.757410 -15.484300   9.781650  -6.250680   3.568520  42.379100  38.412600 -72.261200 -30.598400   0.000000  -0.000000 -10.299200   0.001555   0.000000 -29.759700   5.168100  -8.952900 -24.680100   0.008206   0.000826 -17.276100   0.011864   0.000457 -28.234000  -1.349420   2.510980 -33.930300  -0.000704  -0.001171 -22.597600   0.011031  -0.000824 -27.751100  -1.328090   2.522320 -30.671800  -0.009924   0.000363 -20.427400   0.000566   0.000216 -28.343700  -1.354110   2.508450 -42.560000  -0.004771   0.000780 -28.345000  -0.005994  -0.009951   9.232160   1.058410   7.097060  70.844700   2.780920  -6.284580   0.231415  -7.570380  11.057500  -8.469370  -3.173250   3.667370 -41.148700  33.970500  66.865000  28.482100   0.000699  -0.000717   9.253950   0.001758  -0.000598  27.899300   9.676540  17.613000  24.056100   0.000544  -0.000149  16.851200   0.001018  -0.003462  28.487700   3.601540   6.605690  38.768200   0.000238   0.000342  25.819600   0.000000  -0.007327  28.103300   3.557010   6.629700  34.202800  -0.005653   0.000563  22.779100   0.006808   0.010544  33.367900   0.600658   0.911720  50.059000  -0.000127   0.005516  33.339200   0.002691   0.003185   1.777250   8.994140   5.786800   0.881469   0.005911   2.929750  -2.317570  -2.715740  -0.345903   0.000000   0.000000   0.000000   1.402020   7.417670   1.848240  -0.814420   2.457290  -6.399080   0.592742  -3.816150  -0.683498   0.000000   0.000000   0.000000
  1.077530  89.585800  -0.397911  -2.329990  -6.670780  -3.742420   0.354967   4.363250   0.462521   0.677439   8.729150   0.901760   0.202180  -0.727113   0.002959   0.336034  -1.473170   1.789490  -4.448730  -3.096450   2.758250 -74.694100  15.004900   1.414660  -0.813203  -4.776980 -15.486400   9.766570  -6.240410   3.549590  42.405000  38.422600 -72.284800 -30.574100   0.000000   0.000000 -10.287900   0.001556  -0.000000 -29.737800   5.179980  -8.982490 -24.664200   0.008206   0.000831 -17.265000   0.011862   0.000459 -28.232700  -1.335760   2.485920 -33.905300  -0.000707  -0.001169 -22.580900   0.011035  -0.000823 -27.747500  -1.314570   2.497180 -30.647100  -0.009930   0.000366 -20.411000   0.000562   0.000219 -28.329700  -1.339790   2.483750 -42.538000  -0.004773   0.000779 -28.330300  -0.005993  -0.009950   9.232070   1.058210   7.097060  70.840100   2.793000  -6.284590   0.240507  -7.575380  11.047200  -8.468070  -3.188750   3.676160 -41.143500  33.971300  66.878300  28.486700   0.000696  -0.000718   9.253830   0.001759  -0.000607  27.907900   9.685700  17.623500  24.064700   0.000544  -0.000153  16.851200   0.001016  -0.003464  28.486800   3.605140   6.612080  38.787200   0.000239   0.000342  25.832200   0.000000  -0.007327  28.102500   3.560720   6.636070  34.215900  -0.005653   0.000558  22.787400   0.006807   0.010544  33.375000   0.599854   0.910295  50.069700  -0.000127   0.005515  33.346300   0.002688   0.003185   1.780240   8.974520   5.781560   0.880411   0.051716   2.928920  -2.318590  -2.739770  -0.351032  -0.000000   0.000000  -0.000000   1.403810   7.424590   1.840020  -0.815180   2.449790  -6.399230   0.592204  -3.815240  -0.691431  -0.000000   0.000000   0.000000
  1.069300  89.585800  -0.398083  -2.328340  -6.670880  -3.729000   0.347524   4.369760   0.465466   0.662223   8.742130   0.908228   0.208304  -0.726781   0.002952   0.342368  -1.472820   1.778130  -4.442880  -3.096700   2.749610 -74.696900  15.026900   1.423550  -0.830831  -4.805320 -15.494500   9.749900  -6.225340   3.518780  42.429900  38.434900 -72.306900 -30.545100   0.000000   0.000000 -10.272500   0.001557   0.000000 -29.707300   5.191850  -9.012070 -24.641000   0.008207   0.000842 -17.248700   0.011861   0.000466 -28.230000  -1.322090   2.460860 -33.868400  -0.000717  -0.001161 -22.556300   0.011045  -0.000819 -27.741400  -1.301050   2.472040 -30.611200  -0.009947   0.000373 -20.387100   0.000552   0.000224 -28.308700  -1.325470   2.459040 -42.505700  -0.004775   0.000778 -28.308800  -0.005993  -0.009948   9.231980   1.058000   7.097060  70.833300   2.813780  -6.284650   0.256784  -7.585730  11.034200  -8.466150  -3.209280   3.689860 -41.136000  33.976100  66.898100  28.495000   0.000691  -0.000720   9.253700   0.001760  -0.000617  27.914500   9.698270  17.639100  24.073200   0.000542  -0.000160  16.851200   0.001015  -0.003471  28.485500   3.610760   6.622100  38.811600   0.000240   0.000341  25.848500   0.000000  -0.007325  28.101300   3.566260   6.646090  34.232300  -0.005654   0.000547  22.798700   0.006806   0.010543  33.385800   0.598342   0.907833  50.085900  -0.000130   0.005513  33.357100   0.002681   0.003185   1.783560   8.954930   5.774200   0.880381   0.097521   2.928100  -2.320390  -2.763800  -0.358524  -0.000000   0.000000  -0.000000   1.406730   7.431510   1.828470  -0.815492   2.442290  -6.399450   0.591477  -3.814320  -0.700368   0.000000   0.000000   0.000000
  1.062340  89.585800  -0.397201  -2.327490  -6.670090  -3.722950   0.339418   4.378390   0.467916   0.645684   8.759350   0.913749   0.213546  -0.729708   0.002944   0.348881  -1.478920   1.771710  -4.440140  -3.096670   2.743610 -74.690200  15.041900   1.427160  -0.845321  -4.820930 -15.511800   9.749550  -6.216370   3.493670  42.440100  38.438500 -72.292300 -30.539600   0.000000   0.000046 -10.267300   0.001554  -0.000000 -29.691400   5.186470  -9.006670 -24.627400   0.008211   0.000856 -17.239200   0.011864   0.000477 -28.226300  -1.325820   2.468000 -33.846100  -0.000733  -0.001149 -22.541500   0.011063  -0.000811 -27.736100  -1.304690   2.479220 -30.590900  -0.009975   0.000383 -20.373600   0.000535   0.000233 -28.295800  -1.328910   2.466340 -42.486600  -0.004776   0.000778 -28.296100  -0.005993  -0.009948   9.232000   1.058030   7.097060  70.829400   2.832230  -6.284750   0.272045  -7.599430  11.031700  -8.465170  -3.214300   3.700710 -41.134100  33.987300  66.914300  28.504000   0.000686  -0.000735   9.254530   0.001758  -0.000617  27.910400   9.702720  17.648800  24.068900   0.000538  -0.000165  16.850600   0.001015  -0.003486  28.484600   3.614520   6.630270  38.815700   0.000242   0.000340  25.851300   0.000000  -0.007324  28.100500   3.569430   6.654300  34.235600  -0.005655   0.000529  22.801800   0.006805   0.010538  33.391700   0.596709   0.905653  50.094600  -0.000138   0.005511  33.363000   0.002670   0.003185   1.782400   8.967820   5.770820   0.884157   0.071310   2.928180  -2.321990  -2.749800  -0.362705  -0.000000   0.000000   0.000000   1.408950   7.430340   1.823360  -0.813632   2.443060  -6.399530   0.588028  -3.815380  -0.701403   0.000000   0.000000  -0.000000
